<svg width="43" height="40" viewBox="0 0 43 40" fill="none" xmlns="http://www.w3.org/2000/svg">
<path d="M5.5 6.33331V0.833313H9.16667V6.33331H14.6667V9.99998H9.16667V15.5H5.5V9.99998H0V6.33331H5.5ZM11 17.3333V11.8333H16.5V6.33331H29.3333L32.6883 9.99998H38.5C40.5167 9.99998 42.1667 11.65 42.1667 13.6666V35.6666C42.1667 37.6833 40.5167 39.3333 38.5 39.3333H9.16667C7.15 39.3333 5.5 37.6833 5.5 35.6666V17.3333H11ZM23.8333 33.8333C28.8933 33.8333 33 29.7266 33 24.6666C33 19.6066 28.8933 15.5 23.8333 15.5C18.7733 15.5 14.6667 19.6066 14.6667 24.6666C14.6667 29.7266 18.7733 33.8333 23.8333 33.8333ZM17.9667 24.6666C17.9667 27.9116 20.5883 30.5333 23.8333 30.5333C27.0783 30.5333 29.7 27.9116 29.7 24.6666C29.7 21.4216 27.0783 18.8 23.8333 18.8C20.5883 18.8 17.9667 21.4216 17.9667 24.6666Z" fill="#F9896B"/>
</svg>
