<svg width="172" height="172" viewBox="0 0 172 172" fill="none" xmlns="http://www.w3.org/2000/svg">
<circle cx="86" cy="86" r="86" fill="#E2E8F0"/>
<path d="M67.6327 70.1943C67.6327 74.6744 64.0008 78.3065 59.5204 78.3065C55.0403 78.3065 51.4082 74.6744 51.4082 70.1943C51.4082 65.7139 55.0403 62.082 59.5204 62.082C64.0008 62.082 67.6327 65.7139 67.6327 70.1943Z" fill="white"/>
<path d="M122.743 114H51.462C47.545 114 44.904 109.979 46.447 106.365L53.032 90.9394C54.3237 87.9134 57.9635 86.707 60.7963 88.3658L70.0156 93.7647C71.086 94.3916 72.443 94.2155 73.3192 93.3358L103.929 62.6065C106.761 59.7631 111.578 60.8504 112.925 64.6373L127.882 106.68C129.151 110.247 126.516 114 122.743 114Z" fill="white"/>
</svg>
