<svg width="80" height="80" viewBox="0 0 80 80" fill="none" xmlns="http://www.w3.org/2000/svg">
<g filter="url(#filter0_d_818_1124)">
<rect x="2" y="2" width="72" height="72" rx="2" fill="#F9896B"/>
</g>
<path d="M50.5191 34.7491C50.5191 34.7491 49.6503 45.5251 49.1463 50.0643C48.9063 52.2323 47.5671 53.5027 45.3735 53.5427C41.1991 53.6179 37.0199 53.6227 32.8471 53.5347C30.7367 53.4915 29.4199 52.2051 29.1847 50.0755C28.6775 45.4963 27.8135 34.7491 27.8135 34.7491" stroke="white" stroke-width="2" stroke-linecap="round" stroke-linejoin="round"/>
<path d="M52.7324 29.5835H25.5996" stroke="white" stroke-width="2" stroke-linecap="round" stroke-linejoin="round"/>
<path d="M47.504 29.5835C46.248 29.5835 45.1663 28.6955 44.9199 27.4651L44.5311 25.5195C44.2911 24.6219 43.4783 24.0011 42.5519 24.0011H35.7791C34.8527 24.0011 34.0399 24.6219 33.7999 25.5195L33.4111 27.4651C33.1647 28.6955 32.0831 29.5835 30.8271 29.5835" stroke="white" stroke-width="2" stroke-linecap="round" stroke-linejoin="round"/>
<defs>
<filter id="filter0_d_818_1124" x="0" y="0" width="80" height="80" filterUnits="userSpaceOnUse" color-interpolation-filters="sRGB">
<feFlood flood-opacity="0" result="BackgroundImageFix"/>
<feColorMatrix in="SourceAlpha" type="matrix" values="0 0 0 0 0 0 0 0 0 0 0 0 0 0 0 0 0 0 127 0" result="hardAlpha"/>
<feOffset dx="2" dy="2"/>
<feGaussianBlur stdDeviation="2"/>
<feComposite in2="hardAlpha" operator="out"/>
<feColorMatrix type="matrix" values="0 0 0 0 0.988235 0 0 0 0 0.329412 0 0 0 0 0.294118 0 0 0 0.25 0"/>
<feBlend mode="normal" in2="BackgroundImageFix" result="effect1_dropShadow_818_1124"/>
<feBlend mode="normal" in="SourceGraphic" in2="effect1_dropShadow_818_1124" result="shape"/>
</filter>
</defs>
</svg>
