<svg width="17" height="17" viewBox="0 0 17 17" fill="none" xmlns="http://www.w3.org/2000/svg">
<path d="M14.26 6.37457C14.26 6.37457 13.8256 11.7626 13.5736 14.0322C13.4536 15.1162 12.784 15.7514 11.6872 15.7714C9.60003 15.809 7.51043 15.8114 5.42403 15.7674C4.36883 15.7458 3.71043 15.1026 3.59283 14.0378C3.33923 11.7482 2.90723 6.37457 2.90723 6.37457" stroke="#F9896B" stroke-width="2" stroke-linecap="round" stroke-linejoin="round"/>
<path d="M15.3662 3.79172H1.7998" stroke="#F9896B" stroke-width="2" stroke-linecap="round" stroke-linejoin="round"/>
<path d="M12.7525 3.79175C12.1245 3.79175 11.5837 3.34775 11.4605 2.73255L11.2661 1.75975C11.1461 1.31095 10.7397 1.00055 10.2765 1.00055H6.89006C6.42686 1.00055 6.02046 1.31095 5.90046 1.75975L5.70606 2.73255C5.58286 3.34775 5.04206 3.79175 4.41406 3.79175" stroke="#F9896B" stroke-width="2" stroke-linecap="round" stroke-linejoin="round"/>
</svg>
