<svg width="72" height="72" viewBox="0 0 72 72" fill="none" xmlns="http://www.w3.org/2000/svg">
<rect width="72" height="72" rx="10.9322" fill="#1A81E4"/>
<path d="M30.673 25.2613C30.673 26.2056 30.673 30.4169 30.673 30.4169H27V36.721H30.673V54H38.2175V36.7083H43.2803C43.2803 36.7083 43.7518 33.6838 43.9876 30.3786C43.3299 30.3786 38.2547 30.3786 38.2547 30.3786C38.2547 30.3786 38.2547 26.7161 38.2547 26.0652C38.2547 25.4272 39.0737 24.5594 39.8927 24.5594C40.6993 24.5594 42.4117 24.5594 44 24.5594C44 23.7044 44 20.7309 44 18C41.8781 18 39.4708 18 38.4161 18C30.4869 18.0128 30.673 24.3169 30.673 25.2613Z" fill="white"/>
</svg>
