<svg width="72" height="72" viewBox="0 0 72 72" fill="none" xmlns="http://www.w3.org/2000/svg">
<rect width="72" height="72" rx="10.9322" fill="url(#paint0_radial_815_601)"/>
<path d="M45 54H27C24.6131 54 22.3239 53.0518 20.636 51.364C18.9482 49.6761 18 47.3869 18 45V27C18 24.6131 18.9482 22.3239 20.636 20.636C22.3239 18.9482 24.6131 18 27 18H45C47.3869 18 49.6761 18.9482 51.364 20.636C53.0518 22.3239 54 24.6131 54 27V45C54 47.3869 53.0518 49.6761 51.364 51.364C49.6761 53.0518 47.3869 54 45 54ZM27 21.6C25.5684 21.602 24.1961 22.1715 23.1838 23.1838C22.1715 24.1961 21.602 25.5684 21.6 27V45C21.602 46.4316 22.1715 47.8039 23.1838 48.8162C24.1961 49.8285 25.5684 50.398 27 50.4H45C46.4316 50.398 47.8039 49.8285 48.8162 48.8162C49.8285 47.8039 50.398 46.4316 50.4 45V27C50.398 25.5684 49.8285 24.1961 48.8162 23.1838C47.8039 22.1715 46.4316 21.602 45 21.6H27Z" fill="white"/>
<path d="M36.0008 46.2001C33.9834 46.2001 32.0114 45.6018 30.334 44.4811C28.6566 43.3603 27.3492 41.7672 26.5772 39.9034C25.8052 38.0396 25.6032 35.9888 25.9968 34.0101C26.3903 32.0315 27.3618 30.2141 28.7883 28.7876C30.2148 27.3611 32.0323 26.3896 34.0109 25.9961C35.9895 25.6025 38.0403 25.8045 39.9042 26.5765C41.768 27.3485 43.361 28.6559 44.4818 30.3333C45.6026 32.0106 46.2008 33.9827 46.2008 36.0001C46.1988 38.7047 45.1235 41.2979 43.2111 43.2104C41.2986 45.1228 38.7054 46.1981 36.0008 46.2001ZM36.0008 29.4001C34.6954 29.4001 33.4194 29.7872 32.334 30.5124C31.2487 31.2376 30.4027 32.2684 29.9032 33.4744C29.4036 34.6804 29.2729 36.0074 29.5276 37.2877C29.7823 38.5679 30.4109 39.7439 31.3339 40.667C32.2569 41.59 33.4329 42.2186 34.7132 42.4733C35.9935 42.7279 37.3205 42.5972 38.5265 42.0977C39.7325 41.5981 40.7633 40.7522 41.4885 39.6668C42.2137 38.5815 42.6008 37.3054 42.6008 36.0001C42.5988 34.2502 41.9028 32.5727 40.6655 31.3354C39.4282 30.098 37.7506 29.4021 36.0008 29.4001Z" fill="white"/>
<path d="M46.1984 28.1997C47.1925 28.1997 47.9984 27.3938 47.9984 26.3997C47.9984 25.4055 47.1925 24.5997 46.1984 24.5997C45.2043 24.5997 44.3984 25.4055 44.3984 26.3997C44.3984 27.3938 45.2043 28.1997 46.1984 28.1997Z" fill="white"/>
<defs>
<radialGradient id="paint0_radial_815_601" cx="0" cy="0" r="1" gradientUnits="userSpaceOnUse" gradientTransform="translate(73.4484 1.4625) scale(166.269)">
<stop stop-color="#F9ED32"/>
<stop offset="0.36" stop-color="#EE2A7B"/>
<stop offset="0.44" stop-color="#D22A8A"/>
<stop offset="0.6" stop-color="#8B2AB2"/>
<stop offset="0.83" stop-color="#1B2AF0"/>
<stop offset="0.88" stop-color="#002AFF"/>
</radialGradient>
</defs>
</svg>
