<svg width="72" height="72" viewBox="0 0 72 72" fill="none" xmlns="http://www.w3.org/2000/svg">
<rect width="72" height="72" rx="10.9322" fill="#04689B"/>
<path d="M27.0451 50.9836H20.8185V30.6288H27.0451V50.9836ZM23.7713 28.0742H23.7232C21.4604 28.0742 20 26.5186 20 24.5371C20 22.5229 21.5085 21 23.8034 21C26.0983 21 27.5105 22.5229 27.5587 24.5207C27.5747 26.5186 26.1143 28.0742 23.7713 28.0742ZM51.984 50.9836H44.9228V40.4541C44.9228 37.7031 43.8154 35.8199 41.3922 35.8199C39.5306 35.8199 38.5035 37.0808 38.0221 38.309C37.8455 38.7511 37.8776 39.357 37.8776 39.9793V51H30.8646C30.8646 51 30.9609 32.3483 30.8646 30.6452H37.8616V33.8384C38.2788 32.4465 40.5095 30.4487 44.0883 30.4487C48.5175 30.4487 52 33.3799 52 39.6845V50.9836H51.984Z" fill="white"/>
</svg>
