<svg width="228" height="58" viewBox="0 0 228 58" fill="none" xmlns="http://www.w3.org/2000/svg">
<circle cx="29" cy="29" r="29" fill="#F9896B"/>
<path d="M14.2468 15.8182H19.1443V19.7728H14.2468V15.8182ZM11.874 34.3438H14.7943V26.0392H11.874V22.3584H19.0835V34.3438H21.6995V38.0245H11.874V34.3438Z" fill="white"/>
<path d="M34.6716 40.1235C32.6436 40.1235 30.8489 39.6976 29.2873 38.8459C27.7461 37.9941 26.5394 36.8077 25.6674 35.2868C24.8157 33.7658 24.3898 32.0217 24.3898 30.0546C24.3898 27.905 24.8968 25.9378 25.9108 24.1532C26.9247 22.3686 28.324 20.9693 30.1087 19.9553C31.8933 18.921 33.8807 18.4039 36.0709 18.4039C37.9569 18.4039 39.63 18.7892 41.0901 19.5598C42.5705 20.3305 43.7164 21.4154 44.5275 22.8147C45.359 24.214 45.7747 25.8263 45.7747 27.6515C45.7747 29.6186 45.288 31.17 44.3146 32.3057C43.3412 33.4413 41.952 34.0801 40.1471 34.2221C39.5387 34.2626 38.9912 34.2829 38.5045 34.2829C37.8352 34.2829 37.1356 34.2626 36.4055 34.2221L36.588 32.9445H36.4664C36.081 33.4109 35.6045 33.7759 35.0366 34.0396C34.4891 34.3032 33.9111 34.435 33.3027 34.435C32.2279 34.435 31.437 34.0396 30.93 33.2487C30.423 32.4578 30.1695 31.4742 30.1695 30.298C30.1695 29.507 30.281 28.7466 30.5041 28.0165C30.7475 27.2864 31.0821 26.6375 31.508 26.0696C32.5625 24.7109 34.0226 24.0315 35.8884 24.0315C36.9024 24.0315 38.1394 24.2445 39.5996 24.6703L38.7174 32.2144C39.2244 32.2347 39.7821 32.2144 40.3905 32.1536C41.4045 32.0319 42.1548 31.6263 42.6415 30.9368C43.1485 30.2473 43.402 29.2333 43.402 27.8948C43.402 26.3738 43.0877 25.0557 42.459 23.9403C41.8506 22.8249 40.9786 21.9731 39.8429 21.385C38.7275 20.7969 37.4296 20.5029 35.9492 20.5029C34.1849 20.5029 32.6031 20.9084 31.2038 21.7196C29.8045 22.5308 28.7094 23.6462 27.9184 25.0658C27.1478 26.4854 26.7625 28.0773 26.7625 29.8417C26.7625 31.464 27.0971 32.8938 27.7664 34.1308C28.4356 35.3476 29.3989 36.3008 30.6562 36.9903C31.9136 37.6595 33.394 37.9941 35.0975 37.9941C36.7401 37.9941 38.3118 37.6899 39.8125 37.0815L39.5387 39.4543C38.9101 39.6571 38.1394 39.8193 37.2268 39.941C36.3143 40.0626 35.4625 40.1235 34.6716 40.1235ZM34.0328 32.2752C34.4789 32.2752 34.915 32.113 35.3408 31.7885C35.787 31.464 36.1824 31.0077 36.5272 30.4196L37.0139 26.4043C36.6083 26.2217 36.1419 26.1305 35.6146 26.1305C34.6412 26.1305 33.901 26.5259 33.394 27.3168C32.9073 28.1077 32.6639 29.0406 32.6639 30.1154C32.6639 30.8252 32.7754 31.3626 32.9985 31.7277C33.2419 32.0927 33.5866 32.2752 34.0328 32.2752Z" fill="white"/>
<path d="M71.3351 15.514H76.2327V19.4686H71.3351V15.514ZM68.9624 34.0396H71.8827V25.735H68.9624V22.0542H76.1718V34.0396H78.7879V37.7203H68.9624V34.0396Z" fill="#2A3342"/>
<path d="M88.7251 38.1766C86.1902 38.1766 84.1926 37.4466 82.7325 35.9864C81.2926 34.5263 80.5727 32.4983 80.5727 29.9025C80.5727 28.2193 80.887 26.7591 81.5157 25.5221C82.1444 24.2647 83.0265 23.3015 84.1622 22.6322C85.3182 21.963 86.6668 21.6284 88.208 21.6284C90.4793 21.6284 92.2234 22.3584 93.4402 23.8186C94.657 25.2787 95.2654 27.3878 95.2654 30.1459C95.2654 30.6123 95.2552 30.957 95.2349 31.1801H84.8923C85.0951 32.2549 85.5615 33.0763 86.2916 33.6441C87.0217 34.1917 88.0052 34.4654 89.2423 34.4654C89.9926 34.4654 90.7734 34.3742 91.5846 34.1917C92.3958 33.9889 93.1056 33.7252 93.714 33.4008L94.4136 36.8382C93.6024 37.264 92.7 37.5885 91.7063 37.8116C90.7328 38.0549 89.7391 38.1766 88.7251 38.1766ZM91.1587 27.9556C91.0979 27.0836 90.7937 26.3941 90.2461 25.8871C89.6986 25.3598 88.9685 25.0962 88.0559 25.0962C87.1839 25.0962 86.464 25.3497 85.8961 25.8567C85.3486 26.3637 85.0038 27.0633 84.8619 27.9556H91.1587Z" fill="#2A3342"/>
<path d="M98.4739 22.0542H102.672V24.4878C103.909 22.5815 105.582 21.6284 107.691 21.6284C108.888 21.6284 109.902 21.9123 110.733 22.4801C111.585 23.0277 112.203 23.8186 112.589 24.8528C113.298 23.7375 114.089 22.9263 114.961 22.4193C115.854 21.892 116.868 21.6284 118.003 21.6284C119.687 21.6284 120.995 22.1354 121.927 23.1494C122.881 24.1431 123.357 25.5322 123.357 27.3168V37.7203H119.068V27.9861C119.068 27.1749 118.865 26.5462 118.46 26.1001C118.074 25.6336 117.547 25.4004 116.878 25.4004C116.046 25.4004 115.276 25.7452 114.566 26.4347C113.856 27.1242 113.329 28.0063 112.984 29.0812V37.7203H108.695V27.9861C108.695 27.1952 108.492 26.5665 108.087 26.1001C107.681 25.6336 107.143 25.4004 106.474 25.4004C105.724 25.4004 105.014 25.6843 104.345 26.2522C103.696 26.7997 103.169 27.5805 102.763 28.5945V37.7203H98.4739V22.0542Z" fill="#2A3342"/>
<path d="M131.852 38.1766C130.229 38.1766 128.941 37.4871 127.988 36.1081C127.035 34.7291 126.559 32.8532 126.559 30.4805C126.559 27.6008 127.289 25.4105 128.749 23.9098C130.209 22.3889 132.308 21.6284 135.046 21.6284C136.587 21.6284 138.392 21.8717 140.46 22.3584V37.7203H136.384L136.475 35.2259H136.354C135.826 36.1791 135.177 36.9091 134.407 37.4161C133.656 37.9231 132.805 38.1766 131.852 38.1766ZM132.764 34.435C133.393 34.435 134.011 34.1004 134.62 33.4312C135.228 32.7619 135.796 31.8696 136.323 30.7542V25.6438C135.674 25.4612 135.025 25.37 134.376 25.37C133.16 25.37 132.237 25.7857 131.608 26.6172C131 27.4487 130.696 28.6756 130.696 30.298C130.696 31.5756 130.878 32.5896 131.243 33.3399C131.608 34.07 132.115 34.435 132.764 34.435Z" fill="#2A3342"/>
<path d="M146.226 15.514H151.123V19.4686H146.226V15.514ZM143.853 34.0396H146.773V25.735H143.853V22.0542H151.062V34.0396H153.678V37.7203H143.853V34.0396Z" fill="#2A3342"/>
<path d="M155.821 34.0396H158.589V19.1644H155.973V15.514H162.878V34.0396H165.647V37.7203H155.821V34.0396Z" fill="#2A3342"/>
<path d="M172.995 38.1766C172.002 38.1766 171.038 38.0752 170.105 37.8724C169.193 37.6696 168.412 37.3959 167.763 37.0511L168.159 33.4008C168.848 33.8266 169.609 34.1714 170.44 34.435C171.271 34.6987 172.052 34.8305 172.782 34.8305C173.472 34.8305 174.05 34.7088 174.516 34.4654C174.983 34.2018 175.216 33.8266 175.216 33.3399C175.216 32.9546 175.054 32.6605 174.729 32.4577C174.405 32.2347 173.786 31.9609 172.874 31.6364L172.052 31.3322C171.18 31.0077 170.47 30.7035 169.923 30.4196C169.375 30.1154 168.878 29.6591 168.432 29.0508C167.986 28.4424 167.763 27.6413 167.763 26.6476C167.763 25.0658 168.351 23.8389 169.527 22.9668C170.724 22.0745 172.275 21.6284 174.182 21.6284C175.682 21.6284 177.264 21.9224 178.927 22.5105L178.349 26.1305C177.761 25.7857 177.092 25.5119 176.341 25.3091C175.611 25.0861 174.922 24.9745 174.273 24.9745C173.604 24.9745 173.066 25.0861 172.661 25.3091C172.275 25.5322 172.083 25.8567 172.083 26.2826C172.083 26.6882 172.245 26.9924 172.569 27.1952C172.894 27.398 173.441 27.6312 174.212 27.8948C174.82 28.1179 175.175 28.2497 175.277 28.2903C176.128 28.635 176.838 28.9696 177.406 29.2941C177.974 29.6186 178.471 30.1053 178.897 30.7542C179.323 31.3829 179.535 32.1941 179.535 33.1878C179.535 34.8508 178.937 36.098 177.741 36.9294C176.544 37.7609 174.962 38.1766 172.995 38.1766Z" fill="#2A3342"/>
<path d="M184.399 15.514H189.296V19.4686H184.399V15.514ZM182.026 34.0396H184.946V25.735H182.026V22.0542H189.235V34.0396H191.851V37.7203H182.026V34.0396Z" fill="#2A3342"/>
<path d="M199.774 44.6256C197.969 44.6256 196.205 44.3924 194.481 43.9259L195.302 40.1539C197.249 40.7217 198.871 41.0056 200.169 41.0056C201.203 41.0056 201.994 40.8434 202.542 40.5189C203.11 40.1945 203.505 39.6875 203.728 38.998C203.972 38.3084 204.114 37.3654 204.154 36.1689H204.063C203.495 36.8179 202.836 37.3147 202.086 37.6595C201.335 38.0042 200.514 38.1766 199.622 38.1766C197.837 38.1766 196.438 37.5074 195.424 36.1689C194.43 34.8102 193.933 32.9343 193.933 30.5413C193.933 27.6413 194.673 25.4308 196.154 23.9098C197.655 22.3889 199.794 21.6284 202.572 21.6284C204.174 21.6284 206.081 21.8717 208.291 22.3584C208.332 26.5361 208.352 29.6794 208.352 31.7885C208.352 33.6745 208.342 35.0941 208.322 36.0473C208.281 38.927 207.551 41.0766 206.131 42.4962C204.732 43.9158 202.613 44.6256 199.774 44.6256ZM200.747 34.435C201.376 34.435 201.974 34.2018 202.542 33.7354C203.13 33.2689 203.647 32.6098 204.093 31.7581L204.063 25.6438C203.394 25.4612 202.745 25.37 202.116 25.37C200.838 25.37 199.865 25.7857 199.196 26.6172C198.547 27.4487 198.222 28.6553 198.222 30.2371C198.222 31.5553 198.435 32.5896 198.861 33.3399C199.307 34.07 199.936 34.435 200.747 34.435Z" fill="#2A3342"/>
<path d="M212.25 22.0542H216.448V24.7616C217.097 23.6868 217.847 22.8959 218.699 22.3889C219.551 21.8819 220.545 21.6284 221.68 21.6284C223.364 21.6284 224.682 22.1354 225.635 23.1494C226.588 24.1431 227.065 25.5322 227.065 27.3168V37.7203H222.775V27.9861C222.775 27.1749 222.573 26.5462 222.167 26.1001C221.761 25.6336 221.214 25.4004 220.524 25.4004C219.713 25.4004 218.943 25.7046 218.213 26.313C217.482 26.9214 216.925 27.692 216.539 28.6249V37.7203H212.25V22.0542Z" fill="#2A3342"/>
</svg>
