<svg width="56" height="56" viewBox="0 0 56 56" fill="none" xmlns="http://www.w3.org/2000/svg">
<circle cx="28" cy="28" r="28" fill="#F9896B"/>
<g clip-path="url(#clip0_1157_3115)">
<path d="M34.666 21.3333H29.3327V24H34.666C36.866 24 38.666 25.8 38.666 28C38.666 30.2 36.866 32 34.666 32H29.3327V34.6666H34.666C38.346 34.6666 41.3327 31.68 41.3327 28C41.3327 24.32 38.346 21.3333 34.666 21.3333ZM26.666 32H21.3327C19.1327 32 17.3327 30.2 17.3327 28C17.3327 25.8 19.1327 24 21.3327 24H26.666V21.3333H21.3327C17.6527 21.3333 14.666 24.32 14.666 28C14.666 31.68 17.6527 34.6666 21.3327 34.6666H26.666V32ZM22.666 26.6666H33.3327V29.3333H22.666V26.6666Z" fill="white"/>
</g>
<defs>
<clipPath id="clip0_1157_3115">
<rect width="32" height="32" fill="white" transform="translate(12 12)"/>
</clipPath>
</defs>
</svg>
