<svg width="72" height="72" viewBox="0 0 72 72" fill="none" xmlns="http://www.w3.org/2000/svg">
<rect width="72" height="72" rx="10.9322" fill="#E60023"/>
<path d="M48.1194 20.5559C45.2532 17.8526 41.2867 16.3637 36.9505 16.3637C30.3269 16.3637 26.2531 19.0312 24.002 21.2688C21.2276 24.0265 19.6367 27.6881 19.6367 31.315C19.6367 35.8688 21.5755 39.364 24.8221 40.6643C25.0401 40.752 25.2594 40.7962 25.4745 40.7962C26.1594 40.7962 26.7021 40.3559 26.8901 39.6496C26.9998 39.2444 27.2537 38.2448 27.3641 37.8109C27.6004 36.9539 27.4095 36.5417 26.894 35.9449C25.955 34.8533 25.5177 33.5625 25.5177 31.8826C25.5177 26.8927 29.2996 21.5895 36.309 21.5895C41.8706 21.5895 45.3254 24.6951 45.3254 29.6942C45.3254 32.8488 44.6338 35.7703 43.3775 37.9209C42.5045 39.4152 40.9695 41.1964 38.6129 41.1964C37.5939 41.1964 36.6785 40.7852 36.1009 40.0681C35.5553 39.3903 35.3754 38.5148 35.5949 37.6022C35.8428 36.5712 36.1809 35.4957 36.508 34.4561C37.1047 32.5571 37.6688 30.7636 37.6688 29.3326C37.6688 26.8851 36.1373 25.2405 33.8581 25.2405C30.9615 25.2405 28.6923 28.1308 28.6923 31.8207C28.6923 33.6303 29.1818 34.9838 29.4034 35.5035C29.0385 37.0224 26.8698 46.0528 26.4584 47.7557C26.2206 48.7497 24.7877 56.6011 27.1593 57.2272C29.8239 57.9305 32.2058 50.2838 32.4482 49.4198C32.6447 48.7171 33.3321 46.0598 33.7534 44.4264C35.0398 45.6437 37.1109 46.4666 39.1262 46.4666C42.9254 46.4666 46.3421 44.787 48.747 41.7374C51.0794 38.7794 52.364 34.6567 52.364 30.1292C52.3638 26.5897 50.8167 23.1003 48.1194 20.5559Z" fill="white"/>
</svg>
