<svg width="72" height="72" viewBox="0 0 72 72" fill="none" xmlns="http://www.w3.org/2000/svg">
<rect width="72" height="72" rx="10.9322" fill="#28B1EF"/>
<path d="M26.7109 38.0542L30.6312 48.9049C30.6312 48.9049 31.1213 49.9201 31.6461 49.9201C32.171 49.9201 39.977 41.7993 39.977 41.7993L48.6576 25.0329L26.8508 35.2533L26.7109 38.0542Z" fill="#C8DAEA"/>
<path d="M31.9064 40.837L31.1538 48.835C31.1538 48.835 30.8388 51.2856 33.2889 48.835C35.739 46.3843 38.0842 44.4945 38.0842 44.4945" fill="#A9C6D8"/>
<path d="M26.7791 38.4414L18.715 35.8139C18.715 35.8139 17.7512 35.4229 18.0616 34.5363C18.1254 34.3534 18.2543 34.1978 18.6398 33.9305C20.4266 32.685 51.7117 21.4403 51.7117 21.4403C51.7117 21.4403 52.595 21.1427 53.116 21.3407C53.2449 21.3805 53.3609 21.454 53.4521 21.5534C53.5433 21.6528 53.6064 21.7747 53.6351 21.9065C53.6914 22.1394 53.7149 22.3789 53.705 22.6183C53.7025 22.8254 53.6775 23.0173 53.6585 23.3183C53.4679 26.3926 47.7659 49.3375 47.7659 49.3375C47.7659 49.3375 47.4247 50.6801 46.2024 50.7261C45.902 50.7358 45.6027 50.6849 45.3224 50.5765C45.0422 50.4681 44.7866 50.3043 44.5709 50.095C42.1723 48.0317 33.8819 42.4602 32.0499 41.2348C32.0086 41.2067 31.9738 41.17 31.9479 41.1272C31.9219 41.0845 31.9055 41.0367 31.8996 40.987C31.874 40.8579 32.0144 40.6979 32.0144 40.6979C32.0144 40.6979 46.4502 27.8663 46.8343 26.5193C46.8641 26.4149 46.7517 26.3634 46.6008 26.4091C45.642 26.7619 29.021 37.2582 27.1866 38.4166C27.0545 38.4565 26.915 38.465 26.7791 38.4414Z" fill="white"/>
</svg>
