<svg width="72" height="72" viewBox="0 0 72 72" fill="none" xmlns="http://www.w3.org/2000/svg">
<rect width="72" height="72" rx="10.9322" fill="#2CBDE2"/>
<path d="M19.6347 23.0474C19.6347 23.0474 25.512 29.6313 35.24 30.7071C35.24 30.7071 34.7768 25.199 39.7131 22.1293C39.7131 22.1293 44.8088 18.7585 48.6739 23.6642C48.6739 23.6642 52.3798 22.9039 53.7695 21.9859C53.7695 21.9859 52.6838 24.0658 50.8309 25.8588L55 25.0412L51.1349 29.1723C51.1349 29.1723 52.6838 43.1004 37.3101 50.4446C37.3101 50.4446 25.3383 54.7335 17 49.0675C17 49.0675 27.1912 47.5327 28.277 45.2377C28.277 45.2377 22.8629 44.6209 21.4731 40.0308L24.4118 39.873C24.4118 39.873 19.3162 39.414 18.6937 32.2132L22.0956 32.6722C22.1101 32.6866 16.696 31.1661 19.6347 23.0474Z" fill="white"/>
</svg>
