<svg width="72" height="72" viewBox="0 0 72 72" fill="none" xmlns="http://www.w3.org/2000/svg">
<rect width="72" height="72" rx="10.9322" fill="#F61C0D"/>
<path d="M54.8592 27.018C54.6501 26.2194 54.2307 25.4902 53.6438 24.9048C53.057 24.3194 52.3238 23.8989 51.5191 23.6861C46.6408 23.1161 41.7302 22.8593 36.8182 22.9172C31.9063 22.8593 26.9957 23.1161 22.1172 23.6861C21.3126 23.8989 20.5794 24.3194 19.9926 24.9048C19.4058 25.4902 18.9863 26.2194 18.7772 27.018C18.2428 29.9863 17.983 32.9967 18.001 36.0117C17.9821 39.0423 18.2419 42.0683 18.7772 45.0521C18.9972 45.8378 19.4214 46.5524 20.0075 47.1249C20.5936 47.6973 21.3211 48.1074 22.1172 48.3141C26.9957 48.884 31.9063 49.141 36.8182 49.083C41.7302 49.141 46.6408 48.884 51.5191 48.3141C52.3153 48.1074 53.0429 47.6973 53.6288 47.1249C54.2149 46.5524 54.6393 45.8378 54.8592 45.0521C55.3946 42.0683 55.6542 39.0423 55.6354 36.0117C55.6535 32.9967 55.3936 29.9863 54.8592 27.018ZM32.9606 41.5804V30.4896L42.8162 36.0117L32.9606 41.5571V41.5804Z" fill="white"/>
</svg>
