<svg width="44" height="44" viewBox="0 0 44 44" fill="none" xmlns="http://www.w3.org/2000/svg">
<circle cx="22" cy="22" r="22" fill="white"/>
<path d="M15 29H16.4L25.025 20.375L23.625 18.975L15 27.6V29ZM29.3 18.925L25.05 14.725L26.45 13.325C26.8333 12.9417 27.3042 12.75 27.8625 12.75C28.4208 12.75 28.8917 12.9417 29.275 13.325L30.675 14.725C31.0583 15.1083 31.2583 15.5708 31.275 16.1125C31.2917 16.6542 31.1083 17.1167 30.725 17.5L29.3 18.925ZM27.85 20.4L17.25 31H13V26.75L23.6 16.15L27.85 20.4ZM24.325 19.675L23.625 18.975L25.025 20.375L24.325 19.675Z" fill="#888FA6"/>
</svg>
