<svg width="46" height="46" viewBox="0 0 46 46" fill="none" xmlns="http://www.w3.org/2000/svg">
<g filter="url(#filter0_d_2353_912)">
<rect x="4" y="4" width="30" height="30" rx="15" fill="white"/>
</g>
<path fill-rule="evenodd" clip-rule="evenodd" d="M18.8393 9C23.8988 9 28 13.3604 28 18.7403C28 23.0428 25.3782 26.6927 21.7405 27.9819C21.2761 28.0778 21.1112 27.7737 21.1112 27.5143C21.1112 27.1932 21.1221 26.1444 21.1221 24.841C21.1221 23.9328 20.829 23.3401 20.5001 23.038C22.5402 22.7967 24.6838 21.973 24.6838 18.2319C24.6838 17.1679 24.3284 16.2996 23.7403 15.6175C23.8356 15.3715 24.1498 14.3807 23.6505 13.0394C23.6505 13.0394 22.8828 12.7784 21.1341 14.0381C20.4021 13.8224 19.618 13.7139 18.8393 13.7101C18.0606 13.7139 17.2774 13.8224 16.5464 14.0381C14.7958 12.7784 14.0263 13.0394 14.0263 13.0394C13.5288 14.3807 13.8431 15.3715 13.9374 15.6175C13.352 16.2996 12.9939 17.1679 12.9939 18.2319C12.9939 21.9635 15.1329 22.7998 17.1675 23.0459C16.9055 23.2891 16.6682 23.7181 16.5858 24.348C16.0636 24.5969 14.7371 25.0276 13.92 23.539C13.92 23.539 13.4354 22.6031 12.5157 22.5347C12.5157 22.5347 11.6225 22.5224 12.4534 23.1266C12.4534 23.1266 13.0534 23.4258 13.4702 24.5516C13.4702 24.5516 14.0079 26.2901 16.5565 25.7011C16.561 26.5152 16.5693 27.2825 16.5693 27.5143C16.5693 27.7718 16.4007 28.0731 15.9436 27.9828C12.3031 26.6956 9.67859 23.0438 9.67859 18.7403C9.67859 13.3604 13.7808 9 18.8393 9Z" fill="#888FA6"/>
<defs>
<filter id="filter0_d_2353_912" x="0" y="0" width="46" height="46" filterUnits="userSpaceOnUse" color-interpolation-filters="sRGB">
<feFlood flood-opacity="0" result="BackgroundImageFix"/>
<feColorMatrix in="SourceAlpha" type="matrix" values="0 0 0 0 0 0 0 0 0 0 0 0 0 0 0 0 0 0 127 0" result="hardAlpha"/>
<feOffset dx="4" dy="4"/>
<feGaussianBlur stdDeviation="4"/>
<feComposite in2="hardAlpha" operator="out"/>
<feColorMatrix type="matrix" values="0 0 0 0 0.827451 0 0 0 0 0.854902 0 0 0 0 0.854902 0 0 0 0.75 0"/>
<feBlend mode="normal" in2="BackgroundImageFix" result="effect1_dropShadow_2353_912"/>
<feBlend mode="normal" in="SourceGraphic" in2="effect1_dropShadow_2353_912" result="shape"/>
</filter>
</defs>
</svg>
