<svg width="46" height="46" viewBox="0 0 46 46" fill="none" xmlns="http://www.w3.org/2000/svg">
<g filter="url(#filter0_d_2353_910)">
<rect x="4" y="4" width="30" height="30" rx="15" fill="white"/>
</g>
<path fill-rule="evenodd" clip-rule="evenodd" d="M14.91 9.12273C13.3403 9.19618 11.9797 9.59417 10.8811 10.7287C9.77862 11.8691 9.3996 13.2857 9.3286 14.8966C9.28446 15.9021 9.02637 23.4983 9.77478 25.4903C10.2795 26.8343 11.2735 27.8676 12.5813 28.3927C13.1915 28.6388 13.8882 28.8055 14.91 28.8541C23.4544 29.2551 26.6217 29.0368 27.9573 25.4903C28.1943 24.8591 28.3574 24.1373 28.4025 23.0802C28.793 14.1967 28.3392 12.2711 26.8501 10.7287C25.6689 9.50682 24.2796 8.67508 14.91 9.12273ZM14.9887 27.0675C14.0532 27.0238 13.5456 26.8622 13.2069 26.7262C12.3549 26.3828 11.7149 25.7218 11.3858 24.8434C10.8158 23.3297 11.0049 16.1405 11.0557 14.9772C11.1056 13.8377 11.3282 12.7963 12.1035 11.9923C13.063 10.9998 14.3026 10.5133 22.7434 10.9084C23.8449 10.96 24.8514 11.1904 25.6286 11.9923C26.5881 12.9849 27.064 14.2804 26.6764 23.0001C26.6342 23.9679 26.4778 24.493 26.3463 24.8434C25.478 27.1511 23.4803 27.4715 14.9887 27.0675ZM22.8365 13.6896C22.8365 14.3467 23.3517 14.881 23.9879 14.881C24.624 14.881 25.1402 14.3467 25.1402 13.6896C25.1402 13.0325 24.624 12.4987 23.9879 12.4987C23.3517 12.4987 22.8365 13.0325 22.8365 13.6896ZM13.939 18.9879C13.939 21.8029 16.1449 24.0851 18.866 24.0851C21.5872 24.0851 23.7931 21.8029 23.7931 18.9879C23.7931 16.173 21.5872 13.8922 18.866 13.8922C16.1449 13.8922 13.939 16.173 13.939 18.9879ZM15.668 18.9879C15.668 17.1616 17.0996 15.6798 18.866 15.6798C20.6325 15.6798 22.0641 17.1616 22.0641 18.9879C22.0641 20.8153 20.6325 22.2975 18.866 22.2975C17.0996 22.2975 15.668 20.8153 15.668 18.9879Z" fill="#888FA6"/>
<defs>
<filter id="filter0_d_2353_910" x="0" y="0" width="46" height="46" filterUnits="userSpaceOnUse" color-interpolation-filters="sRGB">
<feFlood flood-opacity="0" result="BackgroundImageFix"/>
<feColorMatrix in="SourceAlpha" type="matrix" values="0 0 0 0 0 0 0 0 0 0 0 0 0 0 0 0 0 0 127 0" result="hardAlpha"/>
<feOffset dx="4" dy="4"/>
<feGaussianBlur stdDeviation="4"/>
<feComposite in2="hardAlpha" operator="out"/>
<feColorMatrix type="matrix" values="0 0 0 0 0.827451 0 0 0 0 0.854902 0 0 0 0 0.854902 0 0 0 0.75 0"/>
<feBlend mode="normal" in2="BackgroundImageFix" result="effect1_dropShadow_2353_910"/>
<feBlend mode="normal" in="SourceGraphic" in2="effect1_dropShadow_2353_910" result="shape"/>
</filter>
</defs>
</svg>
