<svg width="104" height="104" viewBox="0 0 104 104" fill="none" xmlns="http://www.w3.org/2000/svg">
<rect y="-0.00683594" width="103.534" height="103.534" rx="51.767" fill="white"/>
<path fill-rule="evenodd" clip-rule="evenodd" d="M48.9702 30.7154C49.9266 29.075 52.0448 28.513 53.701 29.46C55.3573 30.4081 55.925 32.5054 54.9689 34.1457L32.4634 72.7516C31.5069 74.3919 29.3888 74.9539 27.7323 74.007C26.0758 73.0589 25.5082 70.9616 26.4646 69.3213L48.9702 30.7154ZM54.5374 32.4381C54.5374 33.8648 53.3711 35.0208 51.9306 35.0208C50.4907 35.0208 49.3233 33.8648 49.3233 32.4381C49.3233 31.0125 50.4907 29.8565 51.9306 29.8565C53.3711 29.8565 54.5374 31.0125 54.5374 32.4381Z" fill="#1B79CC"/>
<path fill-rule="evenodd" clip-rule="evenodd" d="M59.2739 39.0362C57.6176 38.0893 55.4999 38.6513 54.5427 40.2916L37.6201 69.3206C36.6637 70.9609 37.2313 73.0593 38.8878 74.0062C40.5443 74.9532 42.6625 74.3912 43.6189 72.7509L60.5418 43.7219C61.4979 42.0816 60.9302 39.9832 59.2739 39.0362ZM40.5619 73.5905C42.0023 73.5905 43.1697 72.4345 43.1697 71.0078C43.1697 69.5822 42.0023 68.4262 40.5619 68.4262C39.1227 68.4262 37.9553 69.5822 37.9553 71.0078C37.9553 72.4345 39.1227 73.5905 40.5619 73.5905ZM60.1868 42.0493C60.1868 43.4761 59.0194 44.6321 57.5791 44.6321C56.1398 44.6321 54.9724 43.4761 54.9724 42.0493C54.9724 40.6238 56.1398 39.4678 57.5791 39.4678C59.0194 39.4678 60.1868 40.6238 60.1868 42.0493Z" fill="#0C111A"/>
<path fill-rule="evenodd" clip-rule="evenodd" d="M77.4909 69.1731C78.4469 70.8134 77.8792 72.9106 76.223 73.8587C74.5667 74.8057 72.449 74.2437 71.4918 72.6022L60.1366 53.1251C59.1806 51.4847 59.7483 49.3864 61.4045 48.4394C63.0608 47.4925 65.1797 48.0545 66.1357 49.6948L77.4909 69.1731ZM76.9884 71.0256C76.9884 72.4523 75.821 73.6084 74.3806 73.6084C72.9414 73.6084 71.774 72.4523 71.774 71.0256C71.774 69.6001 72.9414 68.4441 74.3806 68.4441C75.821 68.4441 76.9884 69.6001 76.9884 71.0256Z" fill="#0C111A"/>
<path fill-rule="evenodd" clip-rule="evenodd" d="M48.1607 71.041V71.0148C48.1607 69.1209 49.7113 67.5845 51.624 67.5845H74.5355C76.4488 67.5845 78 69.1209 78 71.0148V71.041C78 72.935 76.4488 74.4702 74.5355 74.4702H51.624C49.7113 74.4702 48.1607 72.935 48.1607 71.041ZM76.9885 71.0256C76.9885 72.4523 75.8211 73.6084 74.3808 73.6084C72.9415 73.6084 71.7741 72.4523 71.7741 71.0256C71.7741 69.6001 72.9415 68.4441 74.3808 68.4441C75.8211 68.4441 76.9885 69.6001 76.9885 71.0256Z" fill="#1B79CC"/>
</svg>
