<svg width="64" height="64" viewBox="0 0 64 64" fill="none" xmlns="http://www.w3.org/2000/svg">
<circle cx="32" cy="32" r="31.5" fill="white" stroke="#E1E9F6"/>
<g clip-path="url(#clip0_2102_2055)">
<path d="M40.01 35.38C38.78 35.38 37.59 35.18 36.48 34.82C36.13 34.7 35.74 34.79 35.47 35.06L33.9 37.03C31.07 35.68 28.42 33.13 27.01 30.2L28.96 28.54C29.23 28.26 29.31 27.87 29.2 27.52C28.83 26.41 28.64 25.22 28.64 23.99C28.64 23.45 28.19 23 27.65 23H24.19C23.65 23 23 23.24 23 23.99C23 33.28 30.73 41 40.01 41C40.72 41 41 40.37 41 39.82V36.37C41 35.83 40.55 35.38 40.01 35.38Z" fill="#FF643A"/>
</g>
<defs>
<clipPath id="clip0_2102_2055">
<rect width="24" height="24" fill="white" transform="translate(20 20)"/>
</clipPath>
</defs>
</svg>
