<svg width="25" height="24" viewBox="0 0 25 24" fill="none" xmlns="http://www.w3.org/2000/svg">
<mask id="mask0_2101_1129" style="mask-type:alpha" maskUnits="userSpaceOnUse" x="0" y="0" width="25" height="24">
<rect x="0.5" width="24" height="24" fill="#D9D9D9"/>
</mask>
<g mask="url(#mask0_2101_1129)">
<path d="M14.375 22H10.625C10.375 22 10.1583 21.9167 9.97497 21.75C9.79164 21.5833 9.6833 21.375 9.64997 21.125L9.34997 18.8C9.1333 18.7167 8.9293 18.6167 8.73797 18.5C8.54597 18.3833 8.3583 18.2583 8.17497 18.125L5.99997 19.025C5.76664 19.1083 5.5333 19.1167 5.29997 19.05C5.06664 18.9833 4.8833 18.8417 4.74997 18.625L2.89997 15.4C2.76664 15.1833 2.72497 14.95 2.77497 14.7C2.82497 14.45 2.94997 14.25 3.14997 14.1L5.02497 12.675C5.0083 12.5583 4.99997 12.4457 4.99997 12.337V11.662C4.99997 11.554 5.0083 11.4417 5.02497 11.325L3.14997 9.9C2.94997 9.75 2.82497 9.55 2.77497 9.3C2.72497 9.05 2.76664 8.81667 2.89997 8.6L4.74997 5.375C4.86664 5.14167 5.04564 4.99567 5.28697 4.937C5.52897 4.879 5.76664 4.89167 5.99997 4.975L8.17497 5.875C8.3583 5.74167 8.54997 5.61667 8.74997 5.5C8.94997 5.38333 9.14997 5.28333 9.34997 5.2L9.64997 2.875C9.6833 2.625 9.79164 2.41667 9.97497 2.25C10.1583 2.08333 10.375 2 10.625 2H14.375C14.625 2 14.8416 2.08333 15.025 2.25C15.2083 2.41667 15.3166 2.625 15.35 2.875L15.65 5.2C15.8666 5.28333 16.071 5.38333 16.263 5.5C16.4543 5.61667 16.6416 5.74167 16.825 5.875L19 4.975C19.2333 4.89167 19.4666 4.88333 19.7 4.95C19.9333 5.01667 20.1166 5.15833 20.25 5.375L22.1 8.6C22.2333 8.81667 22.275 9.05 22.225 9.3C22.175 9.55 22.05 9.75 21.85 9.9L19.975 11.325C19.9916 11.4417 20 11.554 20 11.662V12.337C20 12.4457 19.9833 12.5583 19.95 12.675L21.825 14.1C22.025 14.25 22.15 14.45 22.2 14.7C22.25 14.95 22.2083 15.1833 22.075 15.4L20.225 18.6C20.0916 18.8167 19.9043 18.9627 19.663 19.038C19.421 19.1127 19.1833 19.1083 18.95 19.025L16.825 18.125C16.6416 18.2583 16.45 18.3833 16.25 18.5C16.05 18.6167 15.85 18.7167 15.65 18.8L15.35 21.125C15.3166 21.375 15.2083 21.5833 15.025 21.75C14.8416 21.9167 14.625 22 14.375 22ZM12.55 15.5C13.5166 15.5 14.3416 15.1583 15.025 14.475C15.7083 13.7917 16.05 12.9667 16.05 12C16.05 11.0333 15.7083 10.2083 15.025 9.525C14.3416 8.84167 13.5166 8.5 12.55 8.5C11.5666 8.5 10.7373 8.84167 10.062 9.525C9.3873 10.2083 9.04997 11.0333 9.04997 12C9.04997 12.9667 9.3873 13.7917 10.062 14.475C10.7373 15.1583 11.5666 15.5 12.55 15.5ZM12.55 13.5C12.1333 13.5 11.7793 13.354 11.488 13.062C11.196 12.7707 11.05 12.4167 11.05 12C11.05 11.5833 11.196 11.2293 11.488 10.938C11.7793 10.646 12.1333 10.5 12.55 10.5C12.9666 10.5 13.321 10.646 13.613 10.938C13.9043 11.2293 14.05 11.5833 14.05 12C14.05 12.4167 13.9043 12.7707 13.613 13.062C13.321 13.354 12.9666 13.5 12.55 13.5ZM11.5 20H13.475L13.825 17.35C14.3416 17.2167 14.821 17.0207 15.263 16.762C15.7043 16.504 16.1083 16.1917 16.475 15.825L18.95 16.85L19.925 15.15L17.775 13.525C17.8583 13.2917 17.9166 13.0457 17.95 12.787C17.9833 12.529 18 12.2667 18 12C18 11.7333 17.9833 11.4707 17.95 11.212C17.9166 10.954 17.8583 10.7083 17.775 10.475L19.925 8.85L18.95 7.15L16.475 8.2C16.1083 7.81667 15.7043 7.49567 15.263 7.237C14.821 6.979 14.3416 6.78333 13.825 6.65L13.5 4H11.525L11.175 6.65C10.6583 6.78333 10.1793 6.979 9.73797 7.237C9.29597 7.49567 8.89164 7.80833 8.52497 8.175L6.04997 7.15L5.07497 8.85L7.22497 10.45C7.14164 10.7 7.0833 10.95 7.04997 11.2C7.01664 11.45 6.99997 11.7167 6.99997 12C6.99997 12.2667 7.01664 12.525 7.04997 12.775C7.0833 13.025 7.14164 13.275 7.22497 13.525L5.07497 15.15L6.04997 16.85L8.52497 15.8C8.89164 16.1833 9.29597 16.504 9.73797 16.762C10.1793 17.0207 10.6583 17.2167 11.175 17.35L11.5 20Z" fill="#2A3342"/>
</g>
</svg>
