<svg width="46" height="46" viewBox="0 0 46 46" fill="none" xmlns="http://www.w3.org/2000/svg">
<g filter="url(#filter0_d_2353_913)">
<rect x="4" y="4" width="30" height="30" rx="15" fill="white"/>
</g>
<path d="M25.2743 14.1513C24.1857 15.4921 22.7922 16.5309 21.203 17.1575L21.1347 17.1809C21.3083 17.5482 21.4744 17.9197 21.6266 18.2954C21.6845 18.4304 21.7348 18.5655 21.7858 18.6927C22.3223 18.6315 22.945 18.5967 23.5752 18.5967C24.7691 18.5967 25.9347 18.7215 27.0609 18.9598L26.9492 18.94C26.9376 17.1155 26.3085 15.4465 25.2685 14.1423L25.2784 14.1549L25.2743 14.1513ZM17.8001 11.5394C18.7232 12.8298 19.6381 14.3001 20.4611 15.8312L20.5641 16.0394C22.1336 15.4945 23.4513 14.5324 24.4381 13.2787L24.4502 13.2631C23.1498 12.0591 21.4246 11.3234 19.5345 11.3234C18.9193 11.3234 18.3215 11.4014 17.7497 11.5484L17.8007 11.5376L17.8001 11.5394ZM12.2785 17.4366C14.7201 17.4234 17.079 17.0825 19.325 16.4547L19.1323 16.5003C18.1763 14.7605 17.2677 13.3087 16.2896 11.9127L16.3839 12.0543C14.3028 13.0872 12.7802 15.0347 12.2883 17.3808L12.2796 17.4318L12.2785 17.4366ZM14.0285 24.1524C15.429 21.8226 17.5067 20.0479 19.9726 19.1062L20.0542 19.0792C20.152 19.0456 20.2493 19.0162 20.3471 18.9892C20.159 18.5505 19.9564 18.1142 19.7452 17.6844C17.4951 18.377 14.9099 18.7761 12.2351 18.7761C12.1969 18.7761 12.1592 18.7761 12.1216 18.7761H12.1274L12.1245 19.0102C12.1245 19.012 12.1245 19.0138 12.1245 19.0156C12.1245 20.9943 12.8479 22.7978 14.0349 24.1578L14.0291 24.1512L14.0285 24.1524ZM22.4322 26.0873C22.0375 23.8673 21.4889 21.912 20.7753 20.0437L20.8482 20.2603L20.8008 20.2753C18.3042 21.0832 16.2717 22.7912 15.0124 25.0256L14.9863 25.0754C16.2277 26.0885 17.8134 26.7001 19.5368 26.7001C20.5814 26.7001 21.5751 26.4756 22.4756 26.0705L22.4276 26.0897L22.4322 26.0873ZM26.8543 20.2315C25.9451 19.9471 24.9005 19.7832 23.8188 19.7832C23.2609 19.7832 22.7129 19.827 22.1776 19.911L22.2378 19.9032C22.8049 21.442 23.3038 23.2815 23.6475 25.178L23.6788 25.3845C25.342 24.2082 26.5105 22.3879 26.8514 20.2771L26.8571 20.2321L26.8543 20.2315ZM19.5357 28C14.7427 28 10.8571 23.9705 10.8571 19C10.8571 14.0295 14.7427 10 19.5357 10C24.3287 10 28.2143 14.0295 28.2143 19C28.2079 23.9675 24.3258 27.9928 19.5357 28Z" fill="#888FA6"/>
<defs>
<filter id="filter0_d_2353_913" x="0" y="0" width="46" height="46" filterUnits="userSpaceOnUse" color-interpolation-filters="sRGB">
<feFlood flood-opacity="0" result="BackgroundImageFix"/>
<feColorMatrix in="SourceAlpha" type="matrix" values="0 0 0 0 0 0 0 0 0 0 0 0 0 0 0 0 0 0 127 0" result="hardAlpha"/>
<feOffset dx="4" dy="4"/>
<feGaussianBlur stdDeviation="4"/>
<feComposite in2="hardAlpha" operator="out"/>
<feColorMatrix type="matrix" values="0 0 0 0 0.827451 0 0 0 0 0.854902 0 0 0 0 0.854902 0 0 0 0.75 0"/>
<feBlend mode="normal" in2="BackgroundImageFix" result="effect1_dropShadow_2353_913"/>
<feBlend mode="normal" in="SourceGraphic" in2="effect1_dropShadow_2353_913" result="shape"/>
</filter>
</defs>
</svg>
